<svg width="23" height="20" viewBox="0 0 23 20" fill="none" xmlns="http://www.w3.org/2000/svg">
<path d="M22.6248 10.0012L17.0698 5.55728L17.0698 8.89023L7.07096 8.89023L7.07096 11.1122L17.0698 11.1122L17.0698 14.4452L22.6248 10.0012Z" fill="#746E09"/>
<path d="M9.99976 20C11.3135 20.0036 12.6148 19.7465 13.8285 19.2437C15.0421 18.7408 16.1439 18.002 17.0701 17.0703L15.4991 15.4994C14.0304 16.9681 12.0773 17.778 9.99976 17.778C7.92221 17.778 5.9691 16.9681 4.50038 15.4994C3.03166 14.0306 2.22175 12.0775 2.22175 9.99999C2.22175 7.92244 3.03166 5.96933 4.50038 4.50061C5.9691 3.03189 7.92222 2.22198 9.99976 2.22198C12.0773 2.22198 14.0304 3.03189 15.4991 4.50061L17.0701 2.92968C15.1825 1.041 12.6717 9.15222e-06 9.99976 8.91864e-06C7.32784 8.68505e-06 4.81701 1.041 2.92945 2.92967C1.04077 4.81724 -0.000223959 7.32807 -0.000224193 9.99999C-0.000224426 12.6719 1.04077 15.1827 2.92945 17.0703C3.85557 18.002 4.95737 18.7408 6.17102 19.2436C7.38467 19.7465 8.68605 20.0036 9.99976 20Z" fill="#746E09"/>
</svg>
